<?xml version="1.0" encoding="utf-8"?>
<!-- Generator: Adobe Illustrator 20.0.0, SVG Export Plug-In . SVG Version: 6.00 Build 0)  -->
<svg version="1.1" id="Layer_1" xmlns="http://www.w3.org/2000/svg" xmlns:xlink="http://www.w3.org/1999/xlink" x="0px" y="0px"
	 viewBox="0 0 64 42" style="enable-background:new 0 0 64 42;" xml:space="preserve">
<style type="text/css">
	.st0{fill:#FFFFFF;}
	.st1{fill:#BD0A30;}
	.st2{fill:none;}
	.st3{fill:#3C3B6E;}
</style>
<rect y="9.6" class="st0" width="64" height="3.2"/>
<path class="st0" d="M0,36.3c0,0.7,0.1,1.5,0.4,2.1h63.2c0.3-0.7,0.4-1.4,0.4-2.1v-1.1H0V36.3z"/>
<rect y="22.4" class="st0" width="64" height="3.2"/>
<rect y="28.8" class="st0" width="64" height="3.2"/>
<rect y="16" class="st0" width="64" height="3.2"/>
<path class="st0" d="M0,5.7v0.7h64V5.7c0-0.9-0.2-1.7-0.6-2.5H0.6C0.2,4,0,4.8,0,5.7z"/>
<path class="st1" d="M58.2,0H5.8C3.5,0,1.5,1.3,0.6,3.2h62.8C62.5,1.3,60.5,0,58.2,0z"/>
<rect y="6.4" class="st1" width="64" height="3.2"/>
<rect y="12.8" class="st1" width="64" height="3.2"/>
<rect y="19.2" class="st1" width="64" height="3.2"/>
<rect y="25.6" class="st1" width="64" height="3.2"/>
<rect y="32" class="st1" width="64" height="3.2"/>
<path class="st1" d="M5.8,42h52.4c2.4,0,4.5-1.5,5.4-3.6H0.4C1.3,40.5,3.3,42,5.8,42z"/>
<path class="st2" d="M58.2,0H31.5v22.4H0v13.9C0,39.5,2.6,42,5.8,42h52.4c3.2,0,5.8-2.6,5.8-5.7V5.7C64,2.5,61.4,0,58.2,0z"/>
<path class="st3" d="M31.5,0H5.8C4.1,0,2.6,0.7,1.6,1.8h0.7L2.6,1l0.3,0.8h0.9L3.1,2.4l0.3,0.9L2.6,2.7L1.9,3.3l0.3-0.9L1.5,1.9
	C0.6,2.9,0,4.2,0,5.7v16.7h31.5V0z"/>
<path class="st0" d="M2.2,2.4L1.9,3.3l0.7-0.6l0.8,0.6L3.1,2.4l0.7-0.6H2.9L2.6,1L2.3,1.8H1.6c0,0,0,0-0.1,0.1L2.2,2.4z"/>
<polygon class="st0" points="3.1,6.9 3.8,6.3 2.9,6.3 2.6,5.4 2.3,6.3 1.4,6.3 2.2,6.9 1.9,7.8 2.6,7.2 3.4,7.8 "/>
<polygon class="st0" points="3.1,11.4 3.8,10.8 2.9,10.8 2.6,9.9 2.3,10.8 1.4,10.8 2.2,11.4 1.9,12.2 2.6,11.7 3.4,12.2 "/>
<polygon class="st0" points="3.1,15.8 3.8,15.3 2.9,15.3 2.6,14.4 2.3,15.3 1.4,15.3 2.2,15.8 1.9,16.7 2.6,16.2 3.4,16.7 "/>
<polygon class="st0" points="3.1,20.3 3.8,19.8 2.9,19.8 2.6,18.9 2.3,19.8 1.4,19.8 2.2,20.3 1.9,21.2 2.6,20.7 3.4,21.2 "/>
<polygon class="st0" points="5.7,4.6 6.5,4.1 5.5,4.1 5.2,3.2 5,4.1 4,4.1 4.8,4.6 4.5,5.5 5.2,5 6,5.5 "/>
<polygon class="st0" points="5.7,9.1 6.5,8.6 5.5,8.6 5.2,7.7 5,8.6 4,8.6 4.8,9.1 4.5,10 5.2,9.4 6,10 "/>
<polygon class="st0" points="5.7,13.6 6.5,13 5.5,13 5.2,12.2 5,13 4,13 4.8,13.6 4.5,14.5 5.2,13.9 6,14.5 "/>
<polygon class="st0" points="5.7,18.1 6.5,17.5 5.5,17.5 5.2,16.6 5,17.5 4,17.5 4.8,18.1 4.5,19 5.2,18.4 6,19 "/>
<polygon class="st0" points="7.1,3.3 7.9,2.7 8.6,3.3 8.3,2.4 9.1,1.8 8.1,1.8 7.9,1 7.6,1.8 6.7,1.8 7.4,2.4 "/>
<polygon class="st0" points="7.9,5.4 7.6,6.3 6.7,6.3 7.4,6.9 7.1,7.8 7.9,7.2 8.6,7.8 8.3,6.9 9.1,6.3 8.1,6.3 "/>
<polygon class="st0" points="7.9,9.9 7.6,10.8 6.7,10.8 7.4,11.4 7.1,12.2 7.9,11.7 8.6,12.2 8.3,11.4 9.1,10.8 8.1,10.8 "/>
<polygon class="st0" points="8.1,15.3 7.9,14.4 7.6,15.3 6.7,15.3 7.4,15.8 7.1,16.7 7.9,16.2 8.6,16.7 8.3,15.8 9.1,15.3 "/>
<polygon class="st0" points="8.3,20.3 9.1,19.8 8.1,19.8 7.9,18.9 7.6,19.8 6.7,19.8 7.4,20.3 7.1,21.2 7.9,20.7 8.6,21.2 "/>
<polygon class="st0" points="10,4.6 9.7,5.5 10.5,5 11.2,5.5 10.9,4.6 11.7,4.1 10.8,4.1 10.5,3.2 10.2,4.1 9.3,4.1 "/>
<polygon class="st0" points="10.5,7.7 10.2,8.6 9.3,8.6 10,9.1 9.7,10 10.5,9.4 11.2,10 10.9,9.1 11.7,8.6 10.8,8.6 "/>
<polygon class="st0" points="10.5,12.2 10.2,13 9.3,13 10,13.6 9.7,14.5 10.5,13.9 11.2,14.5 10.9,13.6 11.7,13 10.8,13 "/>
<polygon class="st0" points="10.8,17.5 10.5,16.6 10.2,17.5 9.3,17.5 10,18.1 9.7,19 10.5,18.4 11.2,19 10.9,18.1 11.7,17.5 "/>
<polygon class="st0" points="13.1,1 12.8,1.8 11.9,1.8 12.6,2.4 12.4,3.3 13.1,2.7 13.9,3.3 13.6,2.4 14.3,1.8 13.4,1.8 "/>
<polygon class="st0" points="13.1,5.4 12.8,6.3 11.9,6.3 12.6,6.9 12.4,7.8 13.1,7.2 13.9,7.8 13.6,6.9 14.3,6.3 13.4,6.3 "/>
<polygon class="st0" points="13.1,9.9 12.8,10.8 11.9,10.8 12.6,11.4 12.4,12.2 13.1,11.7 13.9,12.2 13.6,11.4 14.3,10.8 13.4,10.8 
	"/>
<polygon class="st0" points="13.1,14.4 12.8,15.3 11.9,15.3 12.6,15.8 12.4,16.7 13.1,16.2 13.9,16.7 13.6,15.8 14.3,15.3 
	13.4,15.3 "/>
<polygon class="st0" points="13.4,19.8 13.1,18.9 12.8,19.8 11.9,19.8 12.6,20.3 12.4,21.2 13.1,20.7 13.9,21.2 13.6,20.3 
	14.3,19.8 "/>
<polygon class="st0" points="15.7,3.2 15.4,4.1 14.5,4.1 15.3,4.6 15,5.5 15.7,5 16.5,5.5 16.2,4.6 16.9,4.1 16,4.1 "/>
<polygon class="st0" points="15.7,7.7 15.4,8.6 14.5,8.6 15.3,9.1 15,10 15.7,9.4 16.5,10 16.2,9.1 16.9,8.6 16,8.6 "/>
<polygon class="st0" points="15.7,12.2 15.4,13 14.5,13 15.3,13.6 15,14.5 15.7,13.9 16.5,14.5 16.2,13.6 16.9,13 16,13 "/>
<polygon class="st0" points="16,17.5 15.7,16.6 15.4,17.5 14.5,17.5 15.3,18.1 15,19 15.7,18.4 16.5,19 16.2,18.1 16.9,17.5 "/>
<polygon class="st0" points="18.3,1 18.1,1.8 17.1,1.8 17.9,2.4 17.6,3.3 18.3,2.7 19.1,3.3 18.8,2.4 19.6,1.8 18.6,1.8 "/>
<polygon class="st0" points="18.3,5.4 18.1,6.3 17.1,6.3 17.9,6.9 17.6,7.8 18.3,7.2 19.1,7.8 18.8,6.9 19.6,6.3 18.6,6.3 "/>
<polygon class="st0" points="18.3,9.9 18.1,10.8 17.1,10.8 17.9,11.4 17.6,12.2 18.3,11.7 19.1,12.2 18.8,11.4 19.6,10.8 18.6,10.8 
	"/>
<polygon class="st0" points="18.3,14.4 18.1,15.3 17.1,15.3 17.9,15.8 17.6,16.7 18.3,16.2 19.1,16.7 18.8,15.8 19.6,15.3 
	18.6,15.3 "/>
<polygon class="st0" points="18.6,19.8 18.3,18.9 18.1,19.8 17.1,19.8 17.9,20.3 17.6,21.2 18.3,20.7 19.1,21.2 18.8,20.3 
	19.6,19.8 "/>
<polygon class="st0" points="21,3.2 20.7,4.1 19.8,4.1 20.5,4.6 20.2,5.5 21,5 21.7,5.5 21.4,4.6 22.2,4.1 21.3,4.1 "/>
<polygon class="st0" points="23.6,5.4 23.3,6.3 22.4,6.3 23.1,6.9 22.8,7.8 23.6,7.2 24.3,7.8 24.1,6.9 24.8,6.3 23.9,6.3 "/>
<polygon class="st0" points="21,7.7 20.7,8.6 19.8,8.6 20.5,9.1 20.2,10 21,9.4 21.7,10 21.4,9.1 22.2,8.6 21.3,8.6 "/>
<polygon class="st0" points="21,12.2 20.7,13 19.8,13 20.5,13.6 20.2,14.5 21,13.9 21.7,14.5 21.4,13.6 22.2,13 21.3,13 "/>
<polygon class="st0" points="21.3,17.5 21,16.6 20.7,17.5 19.8,17.5 20.5,18.1 20.2,19 21,18.4 21.7,19 21.4,18.1 22.2,17.5 "/>
<polygon class="st0" points="23.6,1 23.3,1.8 22.4,1.8 23.1,2.4 22.8,3.3 23.6,2.7 24.3,3.3 24.1,2.4 24.8,1.8 23.9,1.8 "/>
<polygon class="st0" points="23.6,9.9 23.3,10.8 22.4,10.8 23.1,11.4 22.8,12.2 23.6,11.7 24.3,12.2 24.1,11.4 24.8,10.8 23.9,10.8 
	"/>
<polygon class="st0" points="23.6,14.4 23.3,15.3 22.4,15.3 23.1,15.8 22.8,16.7 23.6,16.2 24.3,16.7 24.1,15.8 24.8,15.3 
	23.9,15.3 "/>
<polygon class="st0" points="23.9,19.8 23.6,18.9 23.3,19.8 22.4,19.8 23.1,20.3 22.8,21.2 23.6,20.7 24.3,21.2 24.1,20.3 
	24.8,19.8 "/>
<polygon class="st0" points="26.2,3.2 25.9,4.1 25,4.1 25.7,4.6 25.5,5.5 26.2,5 27,5.5 26.7,4.6 27.4,4.1 26.5,4.1 "/>
<polygon class="st0" points="26.2,7.7 25.9,8.6 25,8.6 25.7,9.1 25.5,10 26.2,9.4 27,10 26.7,9.1 27.4,8.6 26.5,8.6 "/>
<polygon class="st0" points="26.2,12.2 25.9,13 25,13 25.7,13.6 25.5,14.5 26.2,13.9 27,14.5 26.7,13.6 27.4,13 26.5,13 "/>
<polygon class="st0" points="26.5,17.5 26.2,16.6 25.9,17.5 25,17.5 25.7,18.1 25.5,19 26.2,18.4 27,19 26.7,18.1 27.4,17.5 "/>
<polygon class="st0" points="28.4,2.4 28.1,3.3 28.8,2.7 29.6,3.3 29.3,2.4 30,1.8 29.1,1.8 28.8,1 28.5,1.8 27.6,1.8 "/>
<polygon class="st0" points="28.8,5.4 28.5,6.3 27.6,6.3 28.4,6.9 28.1,7.8 28.8,7.2 29.6,7.8 29.3,6.9 30,6.3 29.1,6.3 "/>
<polygon class="st0" points="28.8,9.9 28.5,10.8 27.6,10.8 28.4,11.4 28.1,12.2 28.8,11.7 29.6,12.2 29.3,11.4 30,10.8 29.1,10.8 
	"/>
<polygon class="st0" points="28.8,14.4 28.5,15.3 27.6,15.3 28.4,15.8 28.1,16.7 28.8,16.2 29.6,16.7 29.3,15.8 30,15.3 29.1,15.3 
	"/>
<polygon class="st0" points="29.1,19.8 28.8,18.9 28.5,19.8 27.6,19.8 28.4,20.3 28.1,21.2 28.8,20.7 29.6,21.2 29.3,20.3 30,19.8 
	"/>
</svg>
